<svg width="177" height="45" viewBox="0 0 177 45" fill="none" xmlns="http://www.w3.org/2000/svg">
<g id="B7 &#226;&#128;&#162; Burger">
<path d="M15.072 17.76C15.072 20 14.384 21.808 13.008 23.184C11.632 24.528 9.808 25.2 7.536 25.2C5.232 25.2 3.392 24.528 2.016 23.184C0.671999 21.808 0 20 0 17.76C0 15.52 0.671999 13.728 2.016 12.384C3.392 11.04 5.232 10.368 7.536 10.368C9.808 10.368 11.632 11.04 13.008 12.384C14.384 13.728 15.072 15.52 15.072 17.76Z" fill="#FE6A0F"/>
<path d="M40.902 34.128C39.686 34.128 38.262 34.08 36.63 33.984C32.886 33.824 30.102 33.744 28.278 33.744C27.574 32.88 27.222 31.872 27.222 30.72C28.31 30.72 29.078 30.544 29.526 30.192C29.974 29.808 30.198 29.168 30.198 28.272V5.712C30.198 4.816 29.974 4.192 29.526 3.84C29.078 3.456 28.31 3.264 27.222 3.264C27.222 2.112 27.574 1.104 28.278 0.24C30.07 0.24 32.838 0.191999 36.582 0.0959988C38.246 0.0319996 39.382 0 39.99 0C45.014 0 48.566 0.783999 50.646 2.352C52.726 3.92 53.766 5.824 53.766 8.064C53.766 9.92 53.286 11.488 52.326 12.768C51.398 14.016 49.846 15.088 47.67 15.984C50.518 16.56 52.55 17.472 53.766 18.72C54.982 19.968 55.59 21.84 55.59 24.336C55.59 30.864 50.694 34.128 40.902 34.128ZM39.558 14.832C43.846 14.832 45.99 12.944 45.99 9.168C45.99 7.376 45.494 5.984 44.502 4.992C43.542 4 42.07 3.504 40.086 3.504C39.19 3.504 38.534 3.568 38.118 3.696V14.736C38.694 14.8 39.174 14.832 39.558 14.832ZM40.134 30.624C44.614 30.624 46.854 28.688 46.854 24.816C46.854 22.608 46.294 20.976 45.174 19.92C44.054 18.832 42.23 18.288 39.702 18.288L38.118 18.336V30.48C38.982 30.576 39.654 30.624 40.134 30.624Z" fill="white"/>
<path d="M80.925 28.128C80.925 28.896 81.117 29.536 81.501 30.048C81.917 30.56 82.493 30.848 83.229 30.912V32.256C82.717 32.832 81.917 33.28 80.829 33.6C79.773 33.92 78.701 34.08 77.613 34.08C76.525 34.08 75.597 33.792 74.829 33.216C74.061 32.64 73.549 31.84 73.293 30.816C71.757 32.992 69.565 34.08 66.717 34.08C64.477 34.08 62.733 33.392 61.485 32.016C60.237 30.64 59.613 28.784 59.613 26.448V13.248C59.613 12.704 59.405 12.32 58.989 12.096C58.605 11.872 58.029 11.76 57.261 11.76V9.648C57.741 9.264 58.653 8.88 59.997 8.496C61.373 8.112 62.829 7.92 64.365 7.92C65.261 7.92 65.917 7.984 66.333 8.112C66.749 8.208 67.037 8.432 67.197 8.784C67.357 9.136 67.437 9.696 67.437 10.464V26.592C67.437 27.584 67.597 28.336 67.917 28.848C68.269 29.328 68.829 29.568 69.597 29.568C70.237 29.568 70.861 29.376 71.469 28.992C72.109 28.576 72.653 28.08 73.101 27.504V13.248C73.101 12.256 72.205 11.76 70.413 11.76V9.648C70.925 9.232 71.853 8.848 73.197 8.496C74.573 8.112 76.077 7.92 77.709 7.92C79.021 7.92 79.885 8.08 80.301 8.4C80.717 8.688 80.925 9.376 80.925 10.464V28.128Z" fill="white"/>
<path d="M101.482 7.68C102.922 7.68 103.978 8.048 104.65 8.784C105.322 9.52 105.658 10.528 105.658 11.808C105.658 13.184 105.29 14.304 104.554 15.168C103.85 16.032 102.89 16.464 101.674 16.464C100.618 16.464 99.7538 16.16 99.0818 15.552C98.4418 14.944 98.1217 14.224 98.1217 13.392C98.1217 12.88 98.1697 12.48 98.2657 12.192C97.1137 12.48 96.1378 12.976 95.3378 13.68V28.08C95.3378 28.88 95.4498 29.488 95.6738 29.904C95.8978 30.32 96.3298 30.64 96.9698 30.864C97.6418 31.056 98.6338 31.152 99.9458 31.152C99.9458 31.728 99.8818 32.224 99.7538 32.64C99.6258 33.024 99.3857 33.392 99.0338 33.744H86.2177C85.4817 33.008 85.1138 32.144 85.1138 31.152C86.0418 31.152 86.6978 30.96 87.0818 30.576C87.4978 30.16 87.7057 29.472 87.7057 28.512V14.64C87.7057 13.776 87.4658 13.168 86.9857 12.816C86.5378 12.464 85.7217 12.288 84.5378 12.288V10.128C85.5938 9.52 86.9857 8.992 88.7137 8.544C90.4737 8.064 91.8337 7.824 92.7937 7.824C93.5617 7.824 94.1058 8.096 94.4258 8.64C94.7458 9.184 94.9057 10.272 94.9057 11.904C95.4818 10.816 96.3938 9.84 97.6418 8.976C98.8898 8.112 100.17 7.68 101.482 7.68Z" fill="white"/>
<path d="M118.387 28.032C122.515 28.32 125.587 29.072 127.603 30.288C129.651 31.472 130.675 33.232 130.675 35.568C130.675 37.2 130.067 38.688 128.851 40.032C127.635 41.408 126.019 42.48 124.003 43.248C122.019 44.048 119.891 44.448 117.619 44.448C113.811 44.448 110.963 43.76 109.075 42.384C107.187 41.04 106.243 39.232 106.243 36.96C106.243 35.776 106.627 34.704 107.395 33.744C108.195 32.752 109.331 32.016 110.803 31.536C110.163 31.088 109.731 30.56 109.507 29.952C109.315 29.344 109.219 28.592 109.219 27.696C109.219 27.12 109.443 26.544 109.891 25.968C110.339 25.36 110.963 24.912 111.763 24.624C110.259 23.824 109.075 22.72 108.211 21.312C107.379 19.904 106.963 18.384 106.963 16.752C106.963 15.088 107.363 13.6 108.163 12.288C108.995 10.944 110.195 9.888 111.763 9.12C113.363 8.32 115.299 7.92 117.571 7.92H117.619C118.771 7.92 119.763 8 120.595 8.16C123.603 8.16 125.667 8.128 126.787 8.064C127.939 7.968 129.043 7.84 130.099 7.68C130.419 7.68 130.659 7.904 130.819 8.352C131.011 8.768 131.107 9.216 131.107 9.696C131.107 11.136 130.483 11.856 129.235 11.856C128.947 11.856 128.067 11.568 126.595 10.992C126.339 10.864 125.955 10.704 125.443 10.512C126.499 11.376 127.315 12.368 127.891 13.488C128.467 14.576 128.755 15.632 128.755 16.656C128.755 19.632 127.731 21.92 125.683 23.52C123.667 25.088 120.835 25.872 117.187 25.872C116.291 25.872 115.283 25.76 114.163 25.536V25.68C114.163 26.448 114.467 27.008 115.075 27.36C115.683 27.68 116.787 27.904 118.387 28.032ZM118.003 11.088C116.979 11.088 116.243 11.616 115.795 12.672C115.379 13.728 115.171 15.264 115.171 17.28C115.171 20.896 116.115 22.704 118.003 22.704C119.027 22.704 119.763 22.16 120.211 21.072C120.659 19.984 120.883 18.32 120.883 16.08C120.883 14.32 120.643 13.056 120.163 12.288C119.683 11.488 118.963 11.088 118.003 11.088ZM119.203 40.512C120.675 40.512 121.763 40.16 122.467 39.456C123.171 38.752 123.523 37.872 123.523 36.816C123.523 35.856 122.931 35.136 121.747 34.656C120.595 34.208 118.771 33.776 116.275 33.36L114.115 32.928C113.699 33.632 113.491 34.56 113.491 35.712C113.491 37.184 113.939 38.352 114.835 39.216C115.731 40.08 117.187 40.512 119.203 40.512Z" fill="white"/>
<path d="M146.193 28.848C148.209 28.848 150.081 28.208 151.809 26.928C152.065 27.184 152.289 27.568 152.481 28.08C152.673 28.592 152.769 29.04 152.769 29.424C152.769 30 152.385 30.672 151.617 31.44C150.849 32.176 149.777 32.816 148.401 33.36C147.057 33.904 145.537 34.176 143.841 34.176C141.473 34.176 139.393 33.664 137.601 32.64C135.841 31.616 134.481 30.128 133.521 28.176C132.561 26.224 132.081 23.92 132.081 21.264C132.081 18.544 132.593 16.16 133.617 14.112C134.673 12.064 136.113 10.496 137.937 9.408C139.761 8.288 141.825 7.728 144.129 7.728C147.041 7.728 149.361 8.576 151.089 10.272C152.817 11.968 153.681 14.32 153.681 17.328C153.681 18.736 153.457 19.856 153.009 20.688C152.561 21.488 151.761 21.888 150.609 21.888H140.241C140.433 26.528 142.417 28.848 146.193 28.848ZM143.841 11.04C142.849 11.04 142.017 11.6 141.345 12.72C140.673 13.808 140.305 15.648 140.241 18.24H145.089C145.601 18.24 145.937 18.064 146.097 17.712C146.257 17.36 146.337 16.816 146.337 16.08C146.337 14.192 146.113 12.88 145.665 12.144C145.217 11.408 144.609 11.04 143.841 11.04Z" fill="white"/>
<path d="M172.591 7.68C174.031 7.68 175.087 8.048 175.759 8.784C176.431 9.52 176.767 10.528 176.767 11.808C176.767 13.184 176.399 14.304 175.663 15.168C174.959 16.032 173.999 16.464 172.783 16.464C171.727 16.464 170.863 16.16 170.191 15.552C169.551 14.944 169.231 14.224 169.231 13.392C169.231 12.88 169.279 12.48 169.375 12.192C168.223 12.48 167.247 12.976 166.447 13.68V28.08C166.447 28.88 166.559 29.488 166.783 29.904C167.007 30.32 167.439 30.64 168.079 30.864C168.751 31.056 169.743 31.152 171.055 31.152C171.055 31.728 170.991 32.224 170.863 32.64C170.735 33.024 170.495 33.392 170.143 33.744H157.327C156.591 33.008 156.223 32.144 156.223 31.152C157.151 31.152 157.807 30.96 158.191 30.576C158.607 30.16 158.815 29.472 158.815 28.512V14.64C158.815 13.776 158.575 13.168 158.095 12.816C157.647 12.464 156.831 12.288 155.647 12.288V10.128C156.703 9.52 158.095 8.992 159.823 8.544C161.583 8.064 162.943 7.824 163.903 7.824C164.671 7.824 165.215 8.096 165.535 8.64C165.855 9.184 166.015 10.272 166.015 11.904C166.591 10.816 167.503 9.84 168.751 8.976C169.999 8.112 171.279 7.68 172.591 7.68Z" fill="white"/>
</g>
</svg>
